name C:\Users\antoi\Documents\MyRepositories\upper-imu-dc\Results\main_tracking\Case_79\ABD01_linearAccelerations_groundFrame.mot
datacolumns 4
datarows 58
range 4.63000000 5.20000000
endheader 
time	radius_imu_x	radius_imu_y	radius_imu_z	
          4.63000000	          0.17449301	          9.55745410	         -0.31590625	
          4.64000000	          0.17139533	          9.54852137	         -0.31011275	
          4.65000000	          0.16377681	          9.54043606	         -0.30499313	
          4.66000000	          0.15250911	          9.53290385	         -0.30042777	
          4.67000000	          0.13889953	          9.52585673	         -0.29623099	
          4.68000000	          0.12459135	          9.51947279	         -0.29218261	
          4.69000000	          0.11128065	          9.51403980	         -0.28806337	
          4.70000000	          0.10048506	          9.50984777	         -0.28367520	
          4.71000000	          0.09349811	          9.50712983	         -0.27884053	
          4.72000000	          0.09143267	          9.50603884	         -0.27339371	
          4.73000000	          0.09519779	          9.50660527	         -0.26718236	
          4.74000000	          0.10540978	          9.50875324	         -0.26009346	
          4.75000000	          0.12202484	          9.51215741	         -0.25208326	
          4.76000000	          0.14431047	          9.51630664	         -0.24319123	
          4.77000000	          0.17132904	          9.52074279	         -0.23351205	
          4.78000000	          0.20176864	          9.52510644	         -0.22323191	
          4.79000000	          0.23392542	          9.52915873	         -0.21262062	
          4.80000000	          0.26593310	          9.53292335	         -0.20202843	
          4.81000000	          0.29591842	          9.53665175	         -0.19185620	
          4.82000000	          0.32225431	          9.54081894	         -0.18252184	
          4.83000000	          0.34361317	          9.54594435	         -0.17440325	
          4.84000000	          0.35941125	          9.55276387	         -0.16782151	
          4.85000000	          0.36920638	          9.56177967	         -0.16300638	
          4.86000000	          0.37278175	          9.57327134	         -0.16009260	
          4.87000000	          0.37084546	          9.58781358	         -0.15916599	
          4.88000000	          0.36440003	          9.60555383	         -0.16017972	
          4.89000000	          0.35437716	          9.62625318	         -0.16301884	
          4.90000000	          0.34158070	          9.64912320	         -0.16745303	
          4.91000000	          0.32624104	          9.67272397	         -0.17314046	
          4.92000000	          0.30837490	          9.69595142	         -0.17988375	
          4.93000000	          0.28864913	          9.71618741	         -0.18684775	
          4.94000000	          0.26724781	          9.73119172	         -0.19327283	
          4.95000000	          0.24506990	          9.73989259	         -0.19855860	
          4.96000000	          0.22383248	          9.74178746	         -0.20206882	
          4.97000000	          0.20284607	          9.73543588	         -0.20310305	
          4.98000000	          0.18372928	          9.72182195	         -0.20153580	
          4.99000000	          0.16709121	          9.70227646	         -0.19736286	
          5.00000000	          0.15292467	          9.67727172	         -0.19043508	
          5.01000000	          0.14160109	          9.64942582	         -0.18141454	
          5.02000000	          0.13278524	          9.62061192	         -0.17089278	
          5.03000000	          0.12590141	          9.59252493	         -0.15951177	
          5.04000000	          0.11881504	          9.56507542	         -0.14746655	
          5.05000000	          0.11259388	          9.54127618	         -0.13585078	
          5.06000000	          0.10582177	          9.52081401	         -0.12481902	
          5.07000000	          0.09772754	          9.50355012	         -0.11449127	
          5.08000000	          0.08818582	          9.48924311	         -0.10488502	
          5.09000000	          0.07737350	          9.47745548	         -0.09590298	
          5.10000000	          0.06571316	          9.46772492	         -0.08742150	
          5.11000000	          0.05288073	          9.45901034	         -0.07911170	
          5.12000000	          0.04036893	          9.45135183	         -0.07094983	
          5.13000000	          0.02886790	          9.44451242	         -0.06287584	
          5.14000000	          0.01894206	          9.43822298	         -0.05479922	
          5.15000000	          0.01109966	          9.43231412	         -0.04670738	
          5.16000000	          0.00580145	          9.42659509	         -0.03853517	
          5.17000000	          0.00345033	          9.42100777	         -0.03028059	
          5.18000000	          0.00401042	          9.41561877	         -0.02206184	
          5.19000000	          0.00683344	          9.41052965	         -0.01408704	
          5.20000000	          0.01086257	          9.40597280	         -0.00666643	
